<svg width="36" height="36" viewBox="0 0 36 36" fill="none" xmlns="http://www.w3.org/2000/svg">
<path fill-rule="evenodd" clip-rule="evenodd" d="M16.5 18C16.5 17.1716 17.1716 16.5 18 16.5H22.5C23.3284 16.5 24 17.1716 24 18C24 18.8284 23.3284 19.5 22.5 19.5H18C17.1716 19.5 16.5 18.8284 16.5 18Z" fill="black"/>
<path fill-rule="evenodd" clip-rule="evenodd" d="M16.5 22.5C16.5 21.6716 17.1716 21 18 21H22.5C23.3284 21 24 21.6716 24 22.5C24 23.3284 23.3284 24 22.5 24H18C17.1716 24 16.5 23.3284 16.5 22.5Z" fill="black"/>
<path fill-rule="evenodd" clip-rule="evenodd" d="M24 13.5C24 14.3284 23.3284 15 22.5 15L13.5 15C12.6716 15 12 14.3284 12 13.5C12 12.6716 12.6716 12 13.5 12L22.5 12C23.3284 12 24 12.6716 24 13.5Z" fill="black"/>
<path d="M15 18C15 18.8284 14.3284 19.5 13.5 19.5C12.6716 19.5 12 18.8284 12 18C12 17.1716 12.6716 16.5 13.5 16.5C14.3284 16.5 15 17.1716 15 18Z" fill="black"/>
<path d="M15 22.5C15 23.3284 14.3284 24 13.5 24C12.6716 24 12 23.3284 12 22.5C12 21.6716 12.6716 21 13.5 21C14.3284 21 15 21.6716 15 22.5Z" fill="black"/>
<path fill-rule="evenodd" clip-rule="evenodd" d="M10.5 9C9.67157 9 9 9.67157 9 10.5V25.5C9 26.3284 9.67157 27 10.5 27H25.5C26.3284 27 27 26.3284 27 25.5V10.5C27 9.67157 26.3284 9 25.5 9H10.5ZM6 10.5C6 8.01472 8.01472 6 10.5 6H25.5C27.9853 6 30 8.01472 30 10.5V25.5C30 27.9853 27.9853 30 25.5 30H10.5C8.01472 30 6 27.9853 6 25.5V10.5Z" fill="black"/>
</svg>
