<svg width="36" height="36" viewBox="0 0 36 36" fill="none" xmlns="http://www.w3.org/2000/svg">
<path fill-rule="evenodd" clip-rule="evenodd" d="M6 10.5C6 8.01472 8.01472 6 10.5 6H25.5C27.9853 6 30 8.01472 30 10.5V25.5C30 27.9853 27.9853 30 25.5 30H10.5C8.01472 30 6 27.9853 6 25.5V10.5ZM10.5 9C9.67157 9 9 9.67157 9 10.5V25.5C9 26.3284 9.67157 27 10.5 27H25.5C26.3284 27 27 26.3284 27 25.5V10.5C27 9.67157 26.3284 9 25.5 9H10.5Z" fill="#5A7060"/>
<path d="M22.5 12C22.5 11.1716 23.1716 10.5 24 10.5C24.8284 10.5 25.5 11.1716 25.5 12C25.5 12.8284 24.8284 13.5 24 13.5C23.1716 13.5 22.5 12.8284 22.5 12Z" fill="#5A7060"/>
<path fill-rule="evenodd" clip-rule="evenodd" d="M18 15C16.3431 15 15 16.3431 15 18C15 19.6569 16.3431 21 18 21C19.6569 21 21 19.6569 21 18C21 16.3431 19.6569 15 18 15ZM12 18C12 14.6863 14.6863 12 18 12C21.3137 12 24 14.6863 24 18C24 21.3137 21.3137 24 18 24C14.6863 24 12 21.3137 12 18Z" fill="#5A7060"/>
</svg>
